<?xml version="1.0" standalone="no"?>
<!DOCTYPE svg PUBLIC "-//W3C//DTD SVG 20010904//EN"
 "http://www.w3.org/TR/2001/REC-SVG-20010904/DTD/svg10.dtd">
<svg version="1.0" xmlns="http://www.w3.org/2000/svg"
 width="1024.000000pt" height="1024.000000pt" viewBox="0 0 1024.000000 1024.000000"
 preserveAspectRatio="xMidYMid meet">

<g transform="translate(0.000000,1024.000000) scale(0.100000,-0.100000)"
fill="#000000" stroke="none">
<path d="M6454 8491 c-37 -23 -59 -77 -49 -121 12 -53 52 -76 160 -89 591 -75
1098 -436 1349 -961 99 -209 148 -391 165 -624 9 -120 12 -131 37 -157 53 -55
139 -44 178 23 16 27 18 45 13 132 -29 473 -233 925 -566 1254 -276 273 -581
438 -976 527 -165 37 -270 43 -311 16z"/>
<path d="M6403 7983 c-39 -37 -49 -73 -34 -123 16 -53 49 -71 150 -82 302 -32
558 -165 765 -397 167 -188 276 -438 298 -686 13 -139 27 -168 89 -186 33 -10
45 -10 74 4 57 27 70 58 67 156 -5 159 -68 395 -147 551 -119 237 -339 467
-585 614 -145 86 -391 161 -570 173 -73 5 -76 5 -107 -24z"/>
<path d="M3225 7710 l-490 -5 -73 -27 c-155 -56 -316 -174 -407 -297 -52 -72
-112 -199 -137 -288 -20 -74 -21 -106 -26 -600 l-4 -523 113 0 114 0 1 498 c2
555 2 563 72 697 49 94 163 208 258 257 127 67 137 68 631 68 l443 0 0 115 c0
63 -1 114 -2 113 -2 -1 -223 -5 -493 -8z"/>
<path d="M6300 7601 l0 -111 48 0 c77 0 222 -26 300 -53 209 -73 375 -232 483
-462 58 -123 69 -188 69 -407 l0 -188 116 0 117 0 -6 198 c-9 304 -53 465
-181 656 -111 166 -247 286 -419 370 -141 70 -248 97 -399 103 l-128 6 0 -112z"/>
<path d="M3346 7081 c-14 -16 -16 -40 -14 -177 l3 -158 28 -16 c24 -13 30 -13
55 0 l27 16 3 153 c2 125 0 158 -13 177 -19 29 -65 32 -89 5z"/>
<path d="M2801 6874 c-24 -30 -25 -41 -8 -70 23 -38 211 -204 232 -204 27 0
51 19 60 48 5 18 -8 37 -76 110 -119 126 -137 142 -163 142 -15 0 -33 -11 -45
-26z"/>
<path d="M3807 6791 c-113 -114 -126 -141 -89 -174 34 -31 57 -19 171 84 120
110 134 136 91 179 -38 38 -60 27 -173 -89z"/>
<path d="M3261 6610 c-66 -24 -133 -78 -166 -133 -34 -59 -51 -139 -65 -307
-6 -80 -14 -157 -17 -172 l-5 -28 371 0 c237 0 371 4 371 10 0 40 -32 355 -40
393 -21 103 -84 182 -179 225 -76 35 -193 40 -270 12z m151 -287 c16 -14 18
-33 18 -155 l0 -138 -45 0 -45 0 0 145 c0 127 2 145 18 154 24 14 33 13 54 -6z"/>
<path d="M4360 5575 l0 -595 113 0 112 0 -3 240 -3 240 146 0 145 0 0 95 0 95
-145 0 -145 0 0 165 0 165 165 0 165 0 0 95 0 95 -275 0 -275 0 0 -595z"/>
<path d="M5038 5575 l-3 -595 110 0 110 0 0 207 0 208 47 3 46 3 20 -53 c10
-29 45 -125 76 -213 l57 -160 113 3 113 3 -84 217 c-47 119 -87 222 -89 227
-2 6 18 24 44 41 32 21 57 49 77 85 l30 54 0 170 c0 192 -10 229 -77 297 -76
75 -173 98 -421 98 l-167 0 -2 -595z m387 391 c55 -23 67 -60 63 -191 -2 -96
-6 -116 -23 -135 -33 -36 -71 -51 -143 -53 l-67 -2 -3 198 -2 197 70 0 c39 0
86 -6 105 -14z"/>
<path d="M5870 5576 l0 -595 110 -3 110 -3 0 598 0 597 -110 0 -110 0 0 -594z"/>
<path d="M6250 5718 c0 -490 3 -526 54 -612 30 -52 71 -86 142 -118 41 -19 66
-23 159 -23 146 0 200 18 276 94 95 96 93 80 97 634 l3 477 -110 0 -110 0 -3
-457 c-3 -447 -4 -459 -25 -498 -26 -50 -59 -68 -118 -67 -58 0 -92 22 -116
75 -17 39 -19 72 -19 495 l0 452 -115 0 -115 0 0 -452z"/>
<path d="M7140 5575 l0 -595 280 0 280 0 0 90 0 90 -170 0 -170 0 0 505 0 505
-110 0 -110 0 0 -595z"/>
<path d="M7810 5576 l0 -595 110 -3 110 -3 0 598 0 597 -110 0 -110 0 0 -594z"/>
<path d="M2902 5878 c-6 -7 -12 -48 -14 -91 l-3 -77 495 0 495 0 -3 78 c-2 42
-9 83 -14 90 -8 9 -116 12 -478 12 -362 0 -470 -3 -478 -12z"/>
<path d="M1890 5771 c-21 -41 -12 -57 43 -78 l52 -20 6 -59 c4 -32 16 -83 28
-112 31 -79 29 -88 -24 -95 -25 -4 -58 -13 -73 -21 -39 -20 -106 -110 -132
-176 -26 -68 -33 -74 -94 -97 -67 -25 -85 -52 -92 -143 -6 -75 -6 -75 24 -97
17 -13 57 -36 90 -53 54 -27 61 -34 71 -74 6 -25 11 -63 11 -84 0 -36 -5 -45
-50 -82 l-50 -42 0 -142 c0 -163 3 -172 77 -200 l49 -19 13 -86 c7 -47 19
-101 27 -119 16 -39 63 -62 111 -55 23 4 40 -1 65 -20 18 -14 55 -32 82 -41
46 -16 54 -15 140 3 89 19 93 19 196 1 150 -26 155 -28 192 -105 32 -69 74
-113 173 -180 l54 -38 58 23 c57 23 213 100 283 140 45 26 61 25 129 -5 31
-13 94 -38 140 -56 46 -17 91 -39 101 -49 21 -21 60 -120 67 -170 5 -33 2 -37
-30 -52 -70 -33 -66 -76 10 -134 32 -25 57 -34 100 -39 32 -3 88 -15 125 -26
77 -22 114 -24 125 -6 4 6 15 32 23 56 8 24 22 48 30 51 8 4 26 13 40 19 14 7
42 36 63 66 l38 55 -57 54 c-34 32 -72 82 -93 122 -25 47 -50 79 -81 101 -25
18 -72 54 -104 79 -33 26 -80 53 -105 61 -25 8 -57 27 -70 41 -23 26 -24 30
-18 139 7 130 -4 170 -66 235 -31 33 -34 41 -27 70 4 18 25 67 47 108 23 41
53 108 69 148 l27 73 -44 45 c-24 26 -67 63 -95 84 -40 30 -55 50 -72 95 -29
75 -29 126 1 162 13 15 43 58 66 95 61 96 90 118 157 118 84 0 90 6 104 107 6
49 12 97 13 107 2 17 -10 22 -93 38 -52 10 -129 24 -170 33 -41 8 -96 14 -121
15 -26 0 -75 11 -111 24 -50 19 -98 26 -231 36 -93 6 -174 13 -180 15 -7 3
-60 9 -118 14 -111 11 -147 21 -190 56 -20 17 -56 26 -152 38 -68 9 -147 17
-174 17 -26 0 -93 11 -147 25 -126 32 -240 34 -256 6z"/>
<path d="M6116 4748 c-56 -15 -120 -82 -134 -140 -7 -28 -12 -127 -12 -246 0
-236 9 -281 69 -335 83 -75 234 -78 315 -6 52 45 66 100 66 251 l0 128 -120 0
-120 0 0 -60 0 -60 50 0 50 0 0 -64 c0 -85 -24 -118 -83 -114 -30 2 -45 10
-61 31 -20 27 -21 41 -21 225 0 217 7 252 54 272 33 13 75 0 90 -28 6 -11 13
-38 17 -61 l7 -41 68 0 69 0 0 41 c0 162 -133 252 -304 207z"/>
<path d="M3900 4365 l0 -385 180 0 180 0 0 65 0 65 -105 0 -105 0 0 100 0 100
85 0 85 0 0 60 0 60 -85 0 -85 0 0 95 0 95 100 0 100 0 0 65 0 65 -175 0 -175
0 0 -385z"/>
<path d="M4340 4367 l0 -384 63 2 62 1 0 232 c0 128 3 232 6 232 3 0 30 -79
60 -175 l54 -175 36 0 37 0 42 133 c85 264 75 266 78 -11 l2 -243 65 2 65 2 0
383 0 382 -81 -1 -82 -2 -60 -197 c-54 -175 -77 -230 -77 -184 0 8 -25 97 -55
197 -30 100 -55 184 -55 186 0 1 -36 3 -80 3 l-80 0 0 -383z"/>
<path d="M5010 4365 l0 -386 176 3 176 3 2 63 1 62 -107 0 -108 0 0 100 0 100
90 0 90 0 0 60 0 60 -90 0 -90 0 0 95 0 95 105 0 106 0 -3 63 -3 62 -172 3
-173 3 0 -386z"/>
<path d="M5450 4366 l0 -388 73 4 72 3 3 133 3 133 25 -3 c24 -3 31 -15 73
-133 l46 -130 73 -1 c39 -1 72 1 72 5 0 3 -14 42 -31 86 -17 44 -41 108 -54
142 l-24 62 33 19 c51 30 66 74 66 196 0 121 -11 158 -59 199 -43 36 -84 45
-238 53 l-133 7 0 -387z m270 234 c17 -17 20 -33 20 -99 0 -101 -14 -121 -88
-129 l-52 -5 0 127 0 126 50 0 c37 0 55 -5 70 -20z"/>
<path d="M6515 4737 c-3 -6 -4 -179 -3 -382 l3 -370 178 -2 177 -2 0 65 0 64
-105 0 -105 0 0 100 0 100 85 0 85 0 0 60 0 60 -85 0 -85 0 0 95 0 95 100 0
100 0 0 65 0 65 -170 0 c-128 0 -172 -3 -175 -13z"/>
<path d="M6950 4365 l0 -386 70 2 70 2 2 235 3 235 95 -234 95 -234 68 -2 67
-3 0 385 0 385 -70 0 -70 0 -2 -224 -3 -224 -91 222 -90 221 -72 3 -72 3 0
-386z"/>
<path d="M7530 4686 l0 -65 124 -3 123 -3 -128 -264 c-116 -238 -129 -269
-129 -317 l0 -54 210 0 210 1 0 64 0 64 -124 3 -125 3 125 254 c123 250 125
256 122 315 l-3 61 -202 3 -203 2 0 -64z"/>
<path d="M8040 4365 l0 -385 176 2 176 3 2 63 1 62 -107 0 -108 0 0 100 0 100
90 0 90 0 0 60 0 60 -90 0 -90 0 0 95 0 95 105 0 106 0 -3 63 -3 62 -172 3
-173 2 0 -385z"/>
<path d="M7200 3353 c0 -362 -5 -405 -61 -515 -36 -71 -130 -173 -201 -219
-26 -17 -82 -42 -123 -55 -74 -24 -83 -24 -455 -24 l-380 0 0 -116 0 -116 398
5 c432 5 455 7 589 67 112 51 235 151 308 250 51 69 104 182 125 267 18 69 20
111 20 430 l0 353 -110 0 -110 0 0 -327z"/>
<path d="M2092 3318 c4 -310 7 -350 26 -421 60 -219 217 -406 426 -507 150
-72 154 -73 694 -77 l482 -4 0 115 0 116 -458 0 c-505 0 -520 2 -636 63 -83
44 -205 165 -244 243 -64 126 -66 147 -67 496 l0 318 -113 0 -114 0 4 -342z"/>
</g>
</svg>
